# AST/ASF file generated using VICON BodyLanguage
# -----------------------------------------------
:version 1.10
:name VICON
:units
  mass 1.0
  length 0.45
  angle deg
:documentation
   .ast/.asf automatically generated from VICON data using
   VICON BodyBuilder and BodyLanguage model FoxedUp or BRILLIANT.MOD
:root
   order TX TY TZ RX RY RZ
   axis XYZ
   position 0 0 0  
   orientation 0 0 0 
:bonedata
  begin
     id 1 
     name lhipjoint
     direction 0.693937 -0.600361 0.397515 
     length 2.37164 
     axis 0 0 0  XYZ
  end
  begin
     id 2 
     name lfemur
     direction 0.34202 -0.939693 0  
     length 6.18497  
     axis 0 0 20  XYZ
    dof rx ry rz
    limits (-160.0 20.0)
           (-70.0 70.0)
           (-60.0 70.0)
  end
  begin
     id 3 
     name ltibia
     direction 0.34202 -0.939693 0   
     length 6.91601   
     axis 0 0 20   XYZ
    dof rx
    limits (-10.0 170.0)
  end
  begin
     id 4 
     name lfoot
     direction 0.0978718 -0.2689 0.958182   
     length 1.81453   
     axis -90 7.62852e-016 20   XYZ
    dof rx rz
    limits (-45.0 90.0)
           (-70.0 20.0)
  end
  begin
     id 5 
     name ltoes
     direction 1.53569e-011 -4.21951e-011 1   
     length 0.912052   
     axis -90 7.62852e-016 20   XYZ
    dof rx
    limits (-90.0 20.0)
  end
  begin
     id 6 
     name rhipjoint
     direction -0.643996 -0.637876 0.422354   
     length 2.23216  
     axis 0 0 0  XYZ 
  end
  begin
     id 7 
     name rfemur
     direction -0.34202 -0.939693 0   
     length 6.15404   
     axis 0 0 -20   XYZ
    dof rx ry rz
    limits (-160.0 20.0)
           (-70.0 70.0)
           (-70.0 60.0)
  end
  begin
     id 8 
     name rtibia
     direction -0.34202 -0.939693 0   
     length 6.86744   
     axis 0 0 -20   XYZ
    dof rx
    limits (-10.0 170.0)
 end
 begin
     id 9 
     name rfoot
     direction -0.118701 -0.326127 0.937844   
     length 1.9243  
     axis -90 -7.62852e-016 -20   XYZ
    dof rx rz
    limits (-45.0 90.0)
           (-20.0 70.0)
  end
  begin
     id 10 
     name rtoes
     direction -1.5356e-011 -4.2181e-011 1   
     length 0.958865   
     axis -90 -7.62852e-016 -20   XYZ
    dof rx
    limits (-90.0 20.0)
  end
  begin
     id 11 
     name lowerback
     direction 0.0310826 0.968686 -0.246334   
     length 2.00021   
     axis 0 0 0   XYZ
    dof rx ry rz
    limits (-20.0 45.0)
           (-30.0 30.0)
           (-30.0 30.0)
  end
  begin
     id 12 
     name upperback
     direction -0.0152834 0.999474 -0.0286152   
     length 2.03728   
     axis 0 0 0   XYZ
    dof rx ry rz
    limits (-20.0 45.0)
           (-30.0 30.0)
           (-30.0 30.0)
  end
  begin
     id 13 
     name thorax
     direction -0.0323701 0.996236 0.0804149   
     length 2.16   
     axis 0 0 0   XYZ
    dof rx ry rz
    limits (-20.0 45.0)
           (-30.0 30.0)
           (-30.0 30.0)
  end
  begin
     id 14 
     name lowerneck
     direction 0.0307935 0.982251 0.185027   
     length 1.43558   
     axis 0 0 0   XYZ
    dof rx ry rz
    limits (-20.0 45.0)
           (-30.0 30.0)
           (-30.0 30.0)
  end
  begin
     id 15 
     name upperneck
     direction -0.0927153 0.994775 0.0427454   
     length 1.44603   
     axis 0 0 0   XYZ
    dof rx ry rz
    limits (-20.0 45.0)
           (-30.0 30.0)
           (-30.0 30.0)
  end
  begin
     id 16
     name head
     direction -0.0341265 0.999406 -0.00472033  
     length 1.45931  
     axis 0 0 0   XYZ
    dof rx ry rz
    limits (-20.0 45.0)
           (-30.0 30.0)
           (-30.0 30.0)
  end
  begin
     id 17 
     name lclavicle
     direction 0.820755 0.555306 -0.134151  
     length 2.66075  
     axis 0 0 0   XYZ
    dof ry rz
    limits (-20.0 10.0)
           (0.0 20.0)
  end
  begin
     id 18 
     name lhumerus
     direction 1 -4.48971e-011 5.24853e-027   
     length 5.0546   
     axis -180 -30 -90   XYZ
    dof rx ry rz
    limits (-60.0 90.0)
           (-90.0 90.0)
           (-90.0 90.0)
  end
  begin
     id 19
     name lradius
     direction 1 -4.48971e-011 2.76575e-028   
     length 3.39013   
     axis -180 -30 -90   XYZ
    dof rx
    limits (-10.0 170.0)
  end
  begin
     id 20
     name lwrist
     direction 1 -4.48939e-011 -2.27826e-027   
     length 1.69507   
     axis 2.17013e-015 90 90   XYZ
    dof ry
    limits (-180.0 0.0)
 end
  begin
     id 21 
     name lhand
     direction 1 -4.49009e-011 -4.55652e-027   
     length 0.572425   
     axis 2.90745e-015 90 90   XYZ
    dof rx rz
    limits (-90.0 90.0)
           (-45.0 45.0)
  end
  begin
     id 22 
     name lfingers
     direction 1 -4.48955e-011 -9.11303e-027   
     length 0.461504   
     axis 5.81489e-015 90 90   XYZ
    dof rx
    limits (0.0 90.0)
  end
  begin
     id 23
     name lthumb
     direction 0.707107 -6.34929e-011 0.707107   
     length 0.66263   
     axis -90 45 2.85299e-015   XYZ
    dof rx rz
    limits (-45.0 45.0)
           (-45.0 45.0)
  end
  begin
     id 24 
     name rclavicle
     direction -0.754477 0.632921 -0.173712   
     length 2.73081  
     axis 0 0 0   XYZ 
    dof ry rz
    limits (-10.0 20.0)
           (-20.0 0.0)
  end
  begin
     id 25 
     name rhumerus
     direction -1 -4.48969e-011 5.1496e-027  
     length 5.0701   
     axis -180 30 90   XYZ
    dof rx ry rz
    limits (-90.0 60.0)
           (-90.0 90.0)
           (-90.0 90.0)
  end
  begin
     id 26 
     name rradius
     direction -1 -4.48967e-011 -7.15624e-028   
     length 3.14957   
     axis -180 30 90   XYZ
    dof rx
    limits (-10.0 170.0)
  end
  begin
     id 27 
     name rwrist
     direction -1 -4.48938e-011 -2.27826e-027   
     length 1.57479   
     axis 2.17013e-015 -90 -90   XYZ
    dof ry
    limits (-180.0 0.0)
  end
  begin
     id 28
     name rhand
     direction -1 -4.49008e-011 -4.55652e-027   
     length 0.718191   
     axis 2.90745e-015 -90 -90   XYZ
    dof rx rz
    limits (-90.0 90.0)
           (-45.0 45.0)
  end
  begin
     id 29
     name rfingers
     direction -1 -4.48953e-011 -9.11303e-027   
     length 0.579024   
     axis 5.81489e-015 -90 -90   XYZ
    dof rx
    limits (0.0 90.0)
  end
  begin
     id 30
     name rthumb
     direction -0.707107 -6.34937e-011 0.707107   
     length 0.831366   
     axis -90 -45 -2.85299e-015   XYZ
    dof rx rz
    limits (-45.0 45.0)
           (-45.0 45.0)
  end
:hierarchy
  begin
    root lhipjoint rhipjoint lowerback
    lhipjoint lfemur
    lfemur ltibia
    ltibia lfoot
    lfoot ltoes
    rhipjoint rfemur
    rfemur rtibia
    rtibia rfoot
    rfoot rtoes
    lowerback upperback
    upperback thorax
    thorax lowerneck lclavicle rclavicle
    lowerneck upperneck
    upperneck head
    lclavicle lhumerus
    lhumerus lradius
    lradius lwrist
    lwrist lhand lthumb
    lhand lfingers
    rclavicle rhumerus
    rhumerus rradius
    rradius rwrist
    rwrist rhand rthumb
    rhand rfingers
  end

#!OML:ASF H:\Male1\Project 1\Capture day 1\Session 1\Male1.ASF
:FULLY-SPECIFIED
:DEGREES
25
root 8.35137 15.4044 3.87061 177.314 6.09877 -179.255
lowerback 9.71757 1.46008 -0.137538
upperback 3.78283 2.24394 -0.975324
thorax -1.48341 1.2679 -1.17501
lowerneck -6.51794 6.30736 9.41333
upperneck 2.34661 7.91074 -6.12491
head 2.63257 3.89335 -3.33433
rclavicle -2.48481e-014 0
rhumerus -35.0381 0.122489 -83.738
rradius 45.1452
rwrist -12.5683
rhand -12.5362 1.50267
rfingers 7.12502
rthumb 13.5402 -28.0371
lclavicle -2.48481e-014 0
lhumerus -31.2985 -0.0106102 83.0263
lradius 30.1227
lwrist -0.648593
lhand -10.6762 7.47054
lfingers 7.12502
lthumb 15.3324 36.8821
rfemur -2.8515 12.7559 20.5629
rtibia 23.4474
rfoot -24.8661 -30.3126
rtoes -24.8829
lfemur -3.37891 -13.0943 -16.1012
ltibia 24.1543
lfoot -18.1542 23.3646
ltoes -18.2812
26
root 8.34973 15.3984 3.89005 177.282 5.92474 -179.217
lowerback 10.1129 1.37433 -0.109383
upperback 3.92497 2.1566 -0.988756
thorax -1.55277 1.23569 -1.20617
lowerneck -6.70643 6.28433 9.31299
upperneck 2.04742 7.86779 -6.11084
head 2.55573 3.86875 -3.30998
rclavicle 2.68359e-015 9.93923e-015
rhumerus -34.2949 -0.148559 -82.5909
rradius 46.9283
rwrist -11.8945
rhand -12.1583 1.05983
rfingers 7.12502
rthumb 13.9044 -28.4553
lclavicle 2.68359e-015 9.93923e-015
lhumerus -30.3913 -1.24227 82.2952
lradius 31.863
lwrist -0.467349
lhand -10.3789 7.57555
lfingers 7.12502
lthumb 15.6188 36.965
rfemur -3.07894 12.1927 20.4909
rtibia 23.7458
rfoot -24.7001 -29.9914
rtoes -25.4166
lfemur -3.77785 -12.6101 -15.9533
ltibia 24.6521
lfoot -18.141 22.7981
ltoes -18.6541
27
root 8.34814 15.3907 3.91558 177.311 5.7452 -179.068
lowerback 10.5604 1.28734 0.0324862
upperback 4.06458 2.08054 -0.980901
thorax -1.64968 1.2102 -1.28164
lowerneck -6.91114 6.24915 9.1713
upperneck 1.72764 7.81187 -6.0781
head 2.47068 3.8384 -3.27196
rclavicle -2.05742e-014 4.77083e-015
rhumerus -33.4139 -0.306557 -81.2533
rradius 49.0328
rwrist -11.4577
rhand -11.9039 0.624279
rfingers 7.12502
rthumb 14.1496 -28.8739
lclavicle -2.05742e-014 4.77083e-015
lhumerus -29.2415 -2.58254 81.2164
lradius 33.997
lwrist -0.234665
lhand -10.6326 7.78507
lfingers 7.12502
lthumb 15.3744 37.1934
rfemur -3.43437 11.4634 20.5023
rtibia 24.1202
rfoot -24.4282 -29.5849
rtoes -26.2405
lfemur -4.3784 -12.0125 -15.6512
ltibia 25.3607
lfoot -18.2154 22.1264
ltoes -19.0681
28
root 8.34644 15.3805 3.94844 177.421 5.55761 -178.865
lowerback 11.059 1.20616 0.232829
upperback 4.18994 2.01999 -0.971071
thorax -1.78687 1.19283 -1.39122
lowerneck -7.1311 6.19851 9.00157
upperneck 1.3893 7.73869 -6.03911
head 2.37917 3.80025 -3.22744
rclavicle 2.88238e-015 1.19271e-015
rhumerus -32.3752 -0.355554 -79.7169
rradius 51.4226
rwrist -11.2482
rhand -11.8218 0.178989
rfingers 7.12502
rthumb 14.2287 -29.3136
lclavicle 2.88238e-015 1.19271e-015
lhumerus -27.8339 -3.95176 79.7486
lradius 36.5342
lwrist 0.103488
lhand -11.4077 8.31355
lfingers 7.12502
lthumb 14.6277 37.7777
rfemur -4.00312 10.522 20.5271
rtibia 24.6588
rfoot -24.1072 -29.0274
rtoes -27.2214
lfemur -5.23228 -11.2976 -15.2508
ltibia 26.3023
lfoot -18.3837 21.3392
ltoes -19.5362
29
root 8.34439 15.3668 3.98956 177.626 5.36553 -178.669
lowerback 11.6184 1.13049 0.41206
upperback 4.2885 1.96577 -0.969318
thorax -1.98483 1.17774 -1.50024
lowerneck -7.35515 6.14097 8.8281
upperneck 1.01635 7.66017 -6.02589
head 2.27799 3.7601 -3.19172
rclavicle -1.13307e-014 3.18055e-015
rhumerus -31.1586 -0.338456 -77.9618
rradius 54.0532
rwrist -11.2083
rhand -11.8888 -0.253061
rfingers 7.12502
rthumb 14.1642 -29.7502
lclavicle -1.13307e-014 3.18055e-015
lhumerus -26.1697 -5.22616 77.8772
lradius 39.45
lwrist 0.538381
lhand -12.5152 8.99359
lfingers 7.12502
lthumb 13.5605 38.532
rfemur -4.87785 9.35282 20.4973
rtibia 25.4819
rfoot -23.8203 -28.2682
rtoes -28.2063
lfemur -6.36659 -10.4803 -14.8247
ltibia 27.4779
lfoot -18.625 20.4619
ltoes -20.0697
30
root 8.34153 15.3473 4.03941 177.933 5.17862 -178.521
lowerback 12.2479 1.05856 0.510293
upperback 4.3585 1.90838 -0.978084
thorax -2.25229 1.15957 -1.57663
lowerneck -7.54441 6.077 8.63264
upperneck 0.548255 7.58162 -6.03676
head 2.13908 3.72156 -3.16177
rclavicle 2.38542e-015 4.77083e-015
rhumerus -29.7402 -0.26064 -75.9789
rradius 56.8712
rwrist -11.2996
rhand -12.1496 -0.596259
rfingers 7.12502
rthumb 13.9129 -30.1108
lclavicle 2.38542e-015 4.77083e-015
lhumerus -24.2561 -6.31262 75.6205
lradius 42.6987
lwrist 1.0211
lhand -13.9907 9.84912
lfingers 7.12502
lthumb 12.1381 39.477
rfemur -6.13676 7.96196 20.3806
rtibia 26.7098
rfoot -23.5913 -27.311
rtoes -29.16
lfemur -7.78198 -9.58363 -14.4283
ltibia 28.8728
lfoot -18.921 19.5266
ltoes -20.6081
31
root 8.3377 15.3187 4.09763 178.319 5.00383 -178.46
lowerback 12.9608 0.994096 0.472952
upperback 4.40907 1.846 -1.00162
thorax -2.58802 1.13807 -1.59381
lowerneck -7.72126 6.01506 8.45521
upperneck -0.00669288 7.51079 -6.09733
head 1.9738 3.68878 -3.15286
rclavicle 1.35174e-014 -3.81667e-014
rhumerus -28.112 -0.203429 -73.7633
rradius 59.8275
rwrist -11.4488
rhand -12.7104 -0.751251
rfingers 7.12502
rthumb 13.3723 -30.3021
lclavicle 1.35174e-014 -3.81667e-014
lhumerus -22.1146 -7.14972 73.0139
lradius 46.2369
lwrist 1.44175
lhand -15.6948 10.7772
lfingers 7.12502
lthumb 10.4945 40.4953
rfemur -7.79858 6.39169 20.165
rtibia 28.4137
rfoot -23.3859 -26.2486
rtoes -30.1923
lfemur -9.44304 -8.65116 -14.1223
ltibia 30.4714
lfoot -19.2583 18.5788
ltoes -21.0875
